<svg xmlns="http://www.w3.org/2000/svg" xmlns:xlink="http://www.w3.org/1999/xlink" width="42" height="42" viewBox="0 0 42 42">
  <defs>
    <clipPath id="clip-path">
      <rect id="Rectangle_12327" data-name="Rectangle 12327" width="42" height="42" transform="translate(281 260)" fill="none"/>
    </clipPath>
  </defs>
  <g id="Mask_Group_12831" data-name="Mask Group 12831" transform="translate(-281 -260)" clip-path="url(#clip-path)">
    <path id="Line_53" data-name="Line 53" d="M0,9A1,1,0,0,1-1,8V0A1,1,0,0,1,0-1,1,1,0,0,1,1,0V8A1,1,0,0,1,0,9Z" transform="translate(295 281)" fill="#0c2137"/>
    <path id="Line_54" data-name="Line 54" d="M0,13a1,1,0,0,1-1-1V0A1,1,0,0,1,0-1,1,1,0,0,1,1,0V12A1,1,0,0,1,0,13Z" transform="translate(302 277)" fill="#0c2137"/>
    <path id="Line_55" data-name="Line 55" d="M0,18a1,1,0,0,1-1-1V0A1,1,0,0,1,0-1,1,1,0,0,1,1,0V17A1,1,0,0,1,0,18Z" transform="translate(309 272)" fill="#0c2137"/>
  </g>
</svg>
