<svg xmlns="http://www.w3.org/2000/svg" xmlns:xlink="http://www.w3.org/1999/xlink" width="42" height="42" viewBox="0 0 42 42">
  <defs>
    <clipPath id="clip-path">
      <rect id="Rectangle_12341" data-name="Rectangle 12341" width="42" height="42" transform="translate(1571 260)" fill="none"/>
    </clipPath>
  </defs>
  <g id="Mask_Group_12836" data-name="Mask Group 12836" transform="translate(-1571 -260)" clip-path="url(#clip-path)">
    <path id="Rectangle_204" data-name="Rectangle 204" d="M3.549-1h14.9A4.555,4.555,0,0,1,23,3.55v9.9A4.554,4.554,0,0,1,18.451,18H3.549A4.554,4.554,0,0,1-1,13.451v-9.9A4.554,4.554,0,0,1,3.549-1Zm14.9,17A2.552,2.552,0,0,0,21,13.451V3.55A2.553,2.553,0,0,0,18.45,1H3.549A2.552,2.552,0,0,0,1,3.549v9.9A2.552,2.552,0,0,0,3.549,16Z" transform="translate(1581 272)" fill="#0c2137"/>
    <path id="Line_64" data-name="Line 64" d="M22,1H0A1,1,0,0,1-1,0,1,1,0,0,1,0-1H22a1,1,0,0,1,1,1A1,1,0,0,1,22,1Z" transform="translate(1581 277)" fill="#0c2137"/>
    <circle id="Ellipse_55" data-name="Ellipse 55" cx="1" cy="1" r="1" transform="translate(1584 283)" fill="#0c2137"/>
    <circle id="Ellipse_56" data-name="Ellipse 56" cx="1" cy="1" r="1" transform="translate(1587 283)" fill="#0c2137"/>
  </g>
</svg>
